<svg xmlns="http://www.w3.org/2000/svg" width="150" height="50" viewBox="0,0,150,50"><path d="M15 8 C77 22,57 20,137 28" stroke="#222" fill="none"/><path d="M7 9 C71 45,67 16,134 8" stroke="#777" fill="none"/><path d="M12 45 C60 7,67 19,149 45" stroke="#555" fill="none"/><path fill="#111" d="M37.92 27.18L37.85 27.11L37.85 27.10Q38.61 27.07 40.02 26.92L40.08 26.97L40.20 27.10Q40.05 27.63 40.05 28.28L40.06 28.29L40.07 29.55L40.13 29.61Q39.19 29.51 38.35 29.58L38.36 29.60L38.50 29.74Q37.60 29.72 36.77 29.68L36.69 29.60L36.83 29.74Q33.95 35.88 30.52 40.49L30.41 40.38L30.40 40.37Q28.03 41.16 26.74 41.77L26.55 41.58L26.65 41.67Q30.69 35.89 33.73 29.61L33.89 29.77L31.17 29.68L31.17 29.68Q31.11 28.29 31.00 26.95L30.99 26.95L30.98 26.94Q33.01 27.22 35.07 27.22L35.05 27.19L37.02 23.57L36.94 23.50Q37.85 21.51 39.07 19.91L39.05 19.90L39.04 19.88Q37.63 20.19 36.03 20.19L35.87 20.03L36.03 20.18Q29.83 20.08 26.06 17.87L26.06 17.87L25.37 16.11L25.53 16.27Q25.20 15.45 24.82 14.57L24.66 14.41L24.83 14.59Q29.04 17.08 34.75 17.31L34.88 17.43L34.89 17.44Q39.87 17.52 45.01 15.54L45.02 15.54L45.02 15.55Q44.88 16.02 44.39 16.89L44.48 16.99L44.43 16.94Q40.73 21.62 37.88 27.14ZM45.98 18.26L45.97 18.24L46.93 16.20L46.94 16.21Q45.96 16.68 44.29 17.40L44.43 17.55L44.49 17.11L44.55 17.17Q44.70 17.06 44.82 16.94L44.78 16.91L44.79 16.91Q45.05 16.11 45.77 14.78L45.90 14.90L45.82 14.82Q40.49 17.11 34.74 16.88L34.70 16.84L34.73 16.87Q28.79 16.68 24.03 13.71L24.00 13.67L23.98 13.65Q25.08 15.60 25.92 18.26L25.82 18.16L25.85 18.19Q27.04 18.92 27.84 19.23L27.86 19.25L27.86 19.25Q27.99 19.57 28.44 21.43L28.38 21.37L28.39 21.38Q31.62 22.70 37.14 22.55L37.17 22.58L36.98 22.39Q36.79 23.07 34.81 26.84L34.77 26.80L34.73 26.77Q32.64 26.73 30.66 26.54L30.67 26.55L30.77 26.65Q30.77 27.41 30.77 28.28L30.83 28.35L30.80 30.03L32.58 30.14L32.51 31.48L32.47 31.43Q28.51 38.78 25.73 42.36L25.78 42.41L25.85 42.48Q27.49 41.76 29.13 41.27L28.99 41.12L29.09 41.23Q28.45 42.18 27.08 43.89L26.90 43.72L26.90 43.71Q30.10 42.66 32.54 42.43L32.50 42.39L32.67 42.56Q35.60 38.79 38.72 32.02L38.63 31.92L42.08 32.14L42.15 32.20Q41.95 31.16 41.95 30.25L42.04 30.35L41.93 28.44L41.94 28.46Q41.80 28.58 41.24 28.62L41.22 28.59L41.16 28.53Q40.56 28.52 40.29 28.52L40.39 28.61L40.28 28.50Q40.27 28.39 40.31 28.23L40.41 28.33L40.35 28.00L40.48 28.13Q42.83 22.84 45.91 18.19Z"/><path d="M6 39 C77 20,75 36,133 4" stroke="#444" fill="none"/><path fill="#222" d="M108.02 29.12L108.08 29.18L107.92 29.02Q106.13 28.95 104.90 30.37L104.96 30.44L105.03 30.51Q103.64 31.78 103.44 33.68L103.53 33.77L103.48 33.71Q103.26 35.78 104.34 36.75L104.28 36.69L104.28 36.69Q105.48 37.77 107.57 37.66L107.54 37.62L107.55 37.64Q109.73 37.57 110.83 36.88L110.75 36.79L110.76 36.81Q111.97 35.77 111.97 34.21L111.90 34.14L111.85 34.09Q111.90 33.76 111.82 33.38L111.77 33.32L111.84 33.40Q111.81 31.62 110.71 30.27L110.88 30.44L110.86 30.42Q109.65 28.96 107.97 29.07ZM107.60 40.23L107.50 40.13L107.52 40.15Q103.24 40.25 101.83 39.49L101.78 39.44L101.88 39.54Q100.71 38.64 100.52 36.93L100.69 37.09L100.57 36.98Q100.63 36.39 100.67 35.66L100.53 35.52L100.61 35.60Q100.69 34.58 100.69 34.12L100.74 34.17L100.65 34.09Q101.08 31.20 101.23 30.51L101.40 30.69L101.29 30.58Q101.69 28.58 102.53 27.17L102.59 27.23L102.55 27.20Q105.23 22.83 111.17 16.47L111.13 16.43L111.26 16.57Q113.79 16.12 116.00 15.32L116.03 15.35L116.18 15.51Q109.16 22.80 105.97 27.03L106.11 27.17L105.96 27.02Q106.94 26.51 108.23 26.51L108.27 26.56L108.36 26.64Q111.63 26.60 113.16 28.55L113.24 28.63L113.07 28.46Q114.53 30.22 114.87 33.76L114.74 33.63L114.79 33.68Q114.92 34.46 114.92 35.07L114.80 34.95L114.86 35.01Q114.84 38.11 112.63 39.17L112.63 39.17L112.74 39.29Q111.41 39.78 107.53 40.17ZM109.85 42.60L109.79 42.54L109.89 42.64Q111.20 42.62 113.18 42.69L113.21 42.72L113.06 42.58Q114.77 42.73 116.33 42.00L116.27 41.94L116.37 42.04Q117.51 41.28 117.51 39.49L117.40 39.38L117.37 39.35Q117.45 38.93 117.28 37.94L117.28 37.94L117.36 38.02Q117.04 36.88 117.04 36.42L117.14 36.52L117.15 36.54Q116.21 31.75 114.61 29.85L114.63 29.87L114.69 29.92Q114.49 29.69 114.34 29.46L114.47 29.59L114.05 29.25L114.00 29.24L114.07 29.31Q113.68 28.77 113.08 27.82L112.98 27.72L113.13 27.87Q112.21 26.91 110.23 26.45L110.16 26.38L110.27 26.50Q111.34 24.75 114.31 21.06L114.32 21.06L118.51 15.74L118.59 15.82Q117.06 16.72 114.66 17.48L114.54 17.37L114.60 17.42Q115.46 16.38 117.24 14.40L117.33 14.49L117.32 14.48Q114.99 15.61 111.11 16.18L110.99 16.06L110.98 16.05Q105.39 22.08 102.42 27.03L102.41 27.02L102.28 26.88Q100.84 29.48 100.27 35.72L100.33 35.78L100.28 35.73Q100.31 36.41 100.38 37.36L100.28 37.25L100.33 37.30Q100.35 39.00 101.45 39.91L101.40 39.86L101.48 39.94Q101.89 40.12 101.85 40.16L101.88 40.19L101.77 40.08Q102.27 41.11 103.07 41.53L102.92 41.38L103.08 41.54Q104.49 42.19 106.43 42.38L106.41 42.36L106.44 42.39Q106.44 42.38 109.94 42.69ZM109.66 31.41L109.74 31.48L109.73 31.48Q110.27 31.33 111.22 31.83L111.17 31.77L111.13 31.73Q111.44 32.66 111.44 33.30L111.43 33.29L111.43 33.29Q111.69 35.22 110.73 36.21L110.77 36.25L110.73 36.20Q109.69 36.96 107.60 37.27L107.54 37.20L107.50 37.16Q106.17 37.28 105.64 37.01L105.56 36.93L105.53 36.91Q105.50 36.61 105.50 36.31L105.40 36.21L105.41 36.22Q105.29 33.06 108.22 31.76L108.06 31.59L108.14 31.68Q108.82 31.25 109.58 31.33Z"/><path fill="#222" d="M72.49 39.43L72.53 39.46L72.57 39.50Q71.84 39.42 71.16 39.46L71.16 39.46L71.21 39.52Q70.41 39.52 69.73 39.52L69.83 39.62L69.71 39.49Q70.16 36.06 70.16 32.64L70.24 32.71L70.31 32.79Q68.36 32.70 67.44 32.70L67.40 32.66L67.39 32.65Q66.67 32.77 64.84 32.69L64.78 32.62L64.79 32.64Q64.82 32.36 64.63 29.89L64.58 29.83L64.65 29.91Q67.11 30.35 70.08 30.35L70.13 30.40L70.04 30.31Q69.85 25.97 69.43 23.38L69.55 23.50L69.48 23.43Q70.26 23.53 71.06 23.53L71.12 23.59L72.71 23.54L72.76 23.59Q72.59 27.91 72.59 30.50L72.57 30.48L72.55 30.46Q74.63 30.37 77.83 30.03L77.82 30.01L77.83 30.03Q77.81 31.45 77.81 32.67L77.74 32.61L77.82 32.69Q77.38 32.51 76.58 32.55L76.64 32.61L76.74 32.71Q75.68 32.64 75.07 32.68L75.07 32.68L75.09 32.69Q75.03 32.64 72.37 32.64L72.43 32.70L72.46 36.16L72.37 36.07Q72.39 37.72 72.50 39.44ZM78.23 29.52L78.33 29.62L78.35 29.63Q76.36 29.85 74.49 29.93L74.54 29.97L74.46 29.90Q74.76 26.81 75.18 24.94L75.13 24.89L75.30 25.06Q74.51 25.03 73.10 25.18L73.10 25.18L73.21 23.05L73.20 23.03Q70.57 23.03 68.89 22.92L68.91 22.94L69.02 23.04Q69.60 26.17 69.79 30.06L69.66 29.93L69.84 30.11Q67.86 29.85 64.17 29.24L64.14 29.21L64.31 29.37Q64.45 30.43 64.45 33.06L64.59 33.20L66.10 33.19L66.00 33.08Q65.93 33.73 65.77 35.14L65.83 35.20L69.76 34.90L69.78 34.92Q69.55 38.08 69.25 39.91L69.31 39.98L69.21 39.88Q70.01 39.92 71.42 39.80L71.51 39.89L71.50 39.88Q71.41 40.47 71.37 41.80L71.41 41.85L71.34 41.78Q71.95 41.85 75.56 42.00L75.62 42.06L75.64 42.08Q74.71 38.97 74.48 35.02L74.37 34.91L74.50 35.03Q77.82 35.13 79.92 35.51L79.88 35.46L79.86 35.45Q79.67 34.49 79.67 33.54L79.68 33.55L79.57 31.54L79.66 31.63Q79.50 31.70 78.96 31.73L78.80 31.57L78.13 31.70L78.14 31.71Q78.13 30.90 78.25 29.53Z"/></svg>